<?xml version="1.0" standalone="no"?>
<!DOCTYPE svg PUBLIC "-//W3C//DTD SVG 20010904//EN"
 "http://www.w3.org/TR/2001/REC-SVG-20010904/DTD/svg10.dtd">
<svg version="1.0" xmlns="http://www.w3.org/2000/svg"
 width="500.000000pt" height="500.000000pt" viewBox="0 0 500.000000 500.000000"
 preserveAspectRatio="xMidYMid meet">
<metadata>
Created by potrace 1.14, written by Peter Selinger 2001-2017
</metadata>
<g transform="translate(0.000000,500.000000) scale(0.100000,-0.100000)"
fill="#000000" stroke="none">
<path d="M2395 4992 c-3 -3 -22 -6 -43 -8 -81 -6 -248 -88 -327 -160 -22 -20
-49 -44 -60 -53 -11 -9 -47 -48 -80 -86 -33 -39 -139 -149 -235 -246 -96 -97
-191 -194 -210 -216 -19 -22 -72 -80 -117 -128 -46 -48 -83 -94 -83 -101 0 -8
-4 -14 -9 -14 -10 0 -46 -82 -56 -129 -12 -58 -7 -164 10 -216 33 -96 146
-227 238 -276 12 -7 28 -19 37 -27 8 -9 82 -60 164 -113 l150 -98 -105 -49
c-57 -27 -156 -74 -219 -105 -64 -32 -120 -57 -125 -57 -12 0 -246 -129 -268
-148 -20 -18 -49 -35 -92 -56 -50 -24 -81 -62 -135 -167 -43 -84 -55 -99 -75
-100 -14 0 -69 -1 -122 -1 -78 -1 -104 -5 -136 -22 -76 -41 -71 35 -73 -1071
-2 -545 1 -1005 6 -1022 l8 -33 -198 0 c-150 0 -199 -3 -203 -12 -7 -22 20
-96 49 -136 36 -49 76 -82 134 -113 l45 -24 2215 0 c2152 0 2216 1 2264 19
100 38 196 154 196 236 l0 30 -199 0 -200 0 8 28 c4 15 6 476 6 1025 -1 980
-2 998 -21 1024 -50 67 -64 70 -300 73 -28 0 -35 6 -59 53 -75 146 -96 173
-159 211 -33 20 -89 54 -123 76 -92 58 -218 120 -413 204 -235 100 -268 115
-274 125 -3 4 70 57 161 116 91 60 171 114 177 120 6 6 31 25 56 42 83 56 165
159 197 247 20 55 20 207 -1 263 -31 88 -118 190 -421 497 -77 78 -167 171
-200 207 -142 154 -174 186 -219 224 -53 44 -164 114 -182 115 -6 0 -24 7 -40
15 -49 24 -162 43 -250 43 -46 -1 -86 -3 -89 -6z m419 -1076 c298 -39 593
-136 737 -242 62 -46 58 -55 -7 -15 -94 57 -333 146 -448 167 -16 3 -32 7 -36
9 -20 12 -241 44 -355 52 -175 11 -478 5 -564 -12 -27 -5 -93 -16 -116 -19
-16 -3 -123 -25 -145 -31 -215 -57 -329 -100 -443 -170 -43 -26 -80 -45 -83
-43 -9 9 112 89 201 132 99 49 288 114 375 131 14 3 36 7 50 10 47 10 75 15
120 21 25 3 54 8 65 10 11 3 63 7 115 11 52 3 96 7 98 8 9 8 341 -7 436 -19z
m-1164 -238 c21 -52 69 -98 112 -104 31 -5 39 -12 51 -43 8 -20 27 -62 41 -93
14 -31 26 -60 26 -63 0 -17 72 -108 137 -172 l73 -71 0 -71 c0 -39 -2 -71 -4
-71 -13 0 -25 8 -550 352 -124 82 -236 186 -209 195 6 2 44 28 85 56 71 51
192 116 214 117 6 0 17 -15 24 -32z m1802 -11 c47 -24 98 -55 113 -70 16 -14
43 -34 62 -44 18 -9 33 -23 33 -29 0 -12 -66 -76 -125 -119 -22 -17 -41 -33
-43 -37 -2 -5 -8 -8 -13 -8 -8 0 -295 -186 -496 -322 -40 -27 -77 -47 -81 -44
-4 3 -8 35 -7 73 l1 68 69 70 c114 114 145 163 201 322 14 37 20 42 53 48 46
8 95 52 113 101 6 19 17 34 24 34 6 0 50 -20 96 -43z m-1181 -797 c10 -6 19
-15 19 -21 0 -5 -11 -2 -24 6 -15 10 -34 14 -52 10 -22 -5 -25 -4 -14 4 19 14
46 14 71 1z m511 -7 c10 -9 18 -20 18 -25 0 -5 -10 0 -22 12 -25 23 -32 24
-61 8 -20 -10 -21 -10 -8 5 17 22 49 22 73 0z m-519 -53 c8 -11 17 -17 22 -12
5 4 4 0 -1 -8 -9 -16 -11 -40 -13 -150 -1 -70 -2 -70 -61 -61 -3 1 -6 50 -7
111 -1 86 1 113 13 125 20 20 30 19 47 -5z m497 10 c9 -6 14 -23 13 -51 -1
-23 -3 -43 -5 -44 -2 -2 -15 -1 -30 2 -20 4 -27 12 -31 36 -3 21 1 38 11 50
17 19 21 20 42 7z m670 -529 c14 -1 59 -61 46 -61 -2 0 0 -15 5 -32 15 -52 21
-101 12 -95 -4 2 -19 0 -33 -6 -59 -24 -96 -29 -200 -29 -62 0 -107 5 -131 15
-42 17 -152 123 -144 137 4 6 0 10 -7 10 -9 0 -9 3 2 10 8 5 11 10 6 10 -15 0
38 37 59 41 17 4 344 4 385 0z m-1455 -21 c31 -11 61 -17 66 -15 4 3 12 -3 18
-12 7 -12 10 -13 11 -4 0 8 6 11 16 7 10 -4 13 -2 8 6 -5 7 0 9 14 6 12 -4 24
-3 27 2 6 9 82 6 107 -5 10 -4 15 -11 12 -16 -3 -5 -1 -9 4 -9 6 0 13 -7 16
-16 3 -8 2 -12 -4 -9 -6 3 -10 1 -10 -5 0 -7 -7 -10 -15 -6 -8 3 -15 2 -15 -3
0 -5 -36 -9 -80 -8 -63 0 -83 3 -90 16 -8 14 -9 14 -10 -1 0 -10 -4 -18 -8
-18 -5 0 -31 -22 -58 -48 -58 -58 -83 -72 -127 -74 -62 -2 -151 58 -167 112
-7 25 -5 35 14 55 57 62 169 80 271 45z m2376 1 c21 -16 24 -28 25 -90 1 -52
-3 -71 -12 -71 -7 0 -16 9 -19 20 -3 11 -13 20 -21 20 -8 0 -14 4 -14 9 0 19
-127 35 -147 19 -7 -6 -13 -8 -13 -4 0 10 -37 -31 -51 -56 -24 -44 -25 -62 -5
-203 9 -62 15 -247 9 -272 -3 -13 -21 -30 -44 -40 -21 -10 -39 -24 -39 -30 0
-7 -4 -13 -8 -13 -5 0 -13 -10 -19 -23 -7 -15 -28 -28 -65 -40 -30 -9 -65 -28
-78 -42 -26 -28 -37 -65 -18 -65 6 0 8 -3 5 -7 -12 -11 90 -72 132 -79 22 -4
46 -13 52 -20 6 -8 17 -14 23 -14 17 -1 63 -45 71 -69 13 -41 -9 -46 -178 -45
-143 1 -159 2 -172 20 -21 28 -18 34 15 34 33 0 50 24 31 43 -6 6 -39 12 -74
13 -34 1 -65 2 -69 3 -11 1 -10 41 0 41 8 0 32 43 32 55 0 12 -65 65 -97 80
-63 30 -373 15 -373 -18 0 -6 -3 -8 -6 -4 -3 3 -14 -2 -24 -10 -20 -18 -17
-39 12 -66 26 -25 52 -67 46 -73 -3 -3 -23 -6 -45 -8 -22 -2 -45 -6 -51 -10
-19 -12 -14 -37 8 -43 16 -4 19 -11 14 -27 -4 -11 -13 -25 -21 -31 -12 -9 -17
-51 -12 -117 2 -30 5 -30 159 -30 11 0 85 0 165 1 l145 1 0 25 c0 23 4 25 48
26 95 2 426 -2 429 -5 2 -2 5 -32 7 -67 4 -58 8 -67 40 -96 24 -22 40 -48 47
-78 6 -25 15 -42 20 -39 5 3 7 -1 4 -8 -3 -7 2 -31 10 -53 8 -22 15 -35 15
-30 1 6 5 0 10 -12 8 -19 13 -21 32 -14 14 5 23 17 23 29 0 11 3 23 7 27 4 4
3 16 -3 26 -7 14 -6 19 2 19 8 0 8 4 -1 15 -7 8 -8 15 -3 15 5 0 9 8 10 18 5
51 9 72 13 72 3 0 7 13 8 30 3 36 19 80 29 80 5 0 8 -101 8 -224 -1 -252 -3
-259 -73 -272 -19 -4 -845 -7 -1834 -7 -1666 0 -1800 1 -1816 16 -13 14 -14
17 -2 17 8 0 35 14 60 31 25 17 79 46 120 66 41 19 133 63 205 98 l129 64 54
-35 c29 -20 76 -44 104 -54 46 -16 56 -16 90 -4 49 17 90 45 146 98 46 44 77
112 88 195 6 49 8 51 45 61 21 6 93 38 160 71 66 33 123 58 126 56 2 -3 6 -68
7 -144 2 -97 7 -145 17 -161 25 -39 69 -52 181 -52 l104 0 -1 -78 c-2 -152 11
-162 220 -167 83 -1 129 2 150 11 17 7 26 13 20 14 -5 0 -2 7 8 14 13 10 19
31 22 77 6 116 17 127 125 130 90 2 130 17 151 57 14 25 20 634 7 655 -4 7
-29 12 -55 12 l-48 0 -3 41 -3 41 166 82 c92 46 168 81 169 79 1 -2 11 -23 21
-48 28 -66 59 -104 118 -143 139 -94 322 -82 445 28 120 108 124 282 8 396
l-36 36 47 26 c149 79 352 177 380 183 18 4 38 13 44 20 17 20 83 17 110 -5z
m-1780 -957 c25 -22 24 -44 -1 -44 -11 0 -20 -4 -20 -9 0 -9 -28 -22 -60 -27
-8 -2 -21 3 -29 9 -12 10 -13 9 -7 -3 5 -8 -8 1 -27 20 -34 34 -34 36 -17 54
36 37 120 37 161 0z m-621 -1034 c0 -5 -2 -10 -4 -10 -3 0 -8 5 -11 10 -3 6
-1 10 4 10 6 0 11 -4 11 -10z m1070 0 c0 -5 -4 -10 -9 -10 -6 0 -13 5 -16 10
-3 6 1 10 9 10 9 0 16 -4 16 -10z m1303 -89 c11 -1 25 -44 20 -59 -15 -39 -85
-33 -98 9 -9 27 24 59 53 54 9 -2 21 -4 25 -4z m168 -6 c14 -9 16 -42 3 -60
-14 -19 -59 -24 -75 -8 -32 32 -5 85 39 77 14 -3 29 -7 33 -9z"/>
<path d="M1870 626 c0 -2 7 -7 16 -10 8 -3 12 -2 9 4 -6 10 -25 14 -25 6z"/>
</g>
</svg>
